<svg width="110" height="46" viewBox="0 0 110 46" fill="none" xmlns="http://www.w3.org/2000/svg">
<path opacity="0.6" d="M11.2595 32.16C11.8595 35.32 13.6995 36.9 16.7795 36.9C18.8995 36.9 20.3995 35.96 21.2795 34.08C22.1595 32.2 22.5995 29.14 22.5995 24.9C21.7195 26.14 20.5195 27.1 18.9995 27.78C17.4795 28.46 15.7795 28.8 13.8995 28.8C11.3395 28.8 9.05953 28.28 7.05953 27.24C5.05953 26.16 3.47953 24.58 2.31953 22.5C1.19953 20.38 0.639531 17.82 0.639531 14.82C0.639531 11.86 1.23953 9.28 2.43953 7.08C3.67953 4.88 5.41953 3.18 7.65953 1.98C9.93953 0.779998 12.6195 0.179998 15.6995 0.179998C21.6195 0.179998 25.7595 2.02 28.1195 5.7C30.4795 9.38 31.6595 14.8 31.6595 21.96C31.6595 27.16 31.1795 31.46 30.2195 34.86C29.2995 38.22 27.7195 40.78 25.4795 42.54C23.2795 44.3 20.2595 45.18 16.4195 45.18C13.3795 45.18 10.7795 44.58 8.61953 43.38C6.49953 42.18 4.85953 40.6 3.69953 38.64C2.57953 36.68 1.93953 34.52 1.77953 32.16H11.2595ZM16.2395 20.7C17.9195 20.7 19.2595 20.2 20.2595 19.2C21.2595 18.16 21.7595 16.76 21.7595 15C21.7595 13.08 21.2395 11.6 20.1995 10.56C19.1595 9.52 17.7595 9 15.9995 9C14.2395 9 12.8395 9.54 11.7995 10.62C10.7995 11.66 10.2995 13.1 10.2995 14.94C10.2995 16.66 10.7995 18.06 11.7995 19.14C12.8395 20.18 14.3195 20.7 16.2395 20.7ZM44.3336 21.48C40.5736 19.48 38.6936 16.34 38.6936 12.06C38.6936 9.9 39.2536 7.94 40.3736 6.18C41.4936 4.38 43.1936 2.96 45.4736 1.92C47.7536 0.839996 50.5536 0.299996 53.8736 0.299996C57.1936 0.299996 59.9736 0.839996 62.2136 1.92C64.4936 2.96 66.1936 4.38 67.3136 6.18C68.4336 7.94 68.9936 9.9 68.9936 12.06C68.9936 14.22 68.4736 16.1 67.4336 17.7C66.4336 19.3 65.0736 20.56 63.3536 21.48C65.5136 22.52 67.1736 23.96 68.3336 25.8C69.4936 27.6 70.0736 29.72 70.0736 32.16C70.0736 35 69.3536 37.46 67.9136 39.54C66.4736 41.58 64.5136 43.14 62.0336 44.22C59.5936 45.3 56.8736 45.84 53.8736 45.84C50.8736 45.84 48.1336 45.3 45.6536 44.22C43.2136 43.14 41.2736 41.58 39.8336 39.54C38.3936 37.46 37.6736 35 37.6736 32.16C37.6736 29.68 38.2536 27.54 39.4136 25.74C40.5736 23.9 42.2136 22.48 44.3336 21.48ZM59.0336 13.62C59.0336 11.98 58.5536 10.72 57.5936 9.84C56.6736 8.92 55.4336 8.46 53.8736 8.46C52.3136 8.46 51.0536 8.92 50.0936 9.84C49.1736 10.76 48.7136 12.04 48.7136 13.68C48.7136 15.24 49.1936 16.48 50.1536 17.4C51.1136 18.28 52.3536 18.72 53.8736 18.72C55.3936 18.72 56.6336 18.26 57.5936 17.34C58.5536 16.42 59.0336 15.18 59.0336 13.62ZM53.8736 25.92C51.9936 25.92 50.4736 26.44 49.3136 27.48C48.1536 28.48 47.5736 29.88 47.5736 31.68C47.5736 33.36 48.1336 34.74 49.2536 35.82C50.4136 36.9 51.9536 37.44 53.8736 37.44C55.7936 37.44 57.2936 36.9 58.3736 35.82C59.4936 34.74 60.0536 33.36 60.0536 31.68C60.0536 29.92 59.4736 28.52 58.3136 27.48C57.1936 26.44 55.7136 25.92 53.8736 25.92ZM76.0398 22.5C76.0398 15.62 77.3598 10.2 79.9998 6.24C82.6798 2.28 86.9798 0.299996 92.8998 0.299996C98.8198 0.299996 103.1 2.28 105.74 6.24C108.42 10.2 109.76 15.62 109.76 22.5C109.76 29.46 108.42 34.92 105.74 38.88C103.1 42.84 98.8198 44.82 92.8998 44.82C86.9798 44.82 82.6798 42.84 79.9998 38.88C77.3598 34.92 76.0398 29.46 76.0398 22.5ZM99.6798 22.5C99.6798 18.46 99.2398 15.36 98.3598 13.2C97.4798 11 95.6598 9.9 92.8998 9.9C90.1398 9.9 88.3198 11 87.4398 13.2C86.5598 15.36 86.1198 18.46 86.1198 22.5C86.1198 25.22 86.2798 27.48 86.5998 29.28C86.9198 31.04 87.5598 32.48 88.5198 33.6C89.5198 34.68 90.9798 35.22 92.8998 35.22C94.8198 35.22 96.2598 34.68 97.2198 33.6C98.2198 32.48 98.8798 31.04 99.1998 29.28C99.5198 27.48 99.6798 25.22 99.6798 22.5Z" fill="#1B8DD3"/>
</svg>
