<svg width="262" height="262" viewBox="0 0 262 262" fill="none" xmlns="http://www.w3.org/2000/svg">
<path d="M109.713 49.9437C109.713 40.4479 102.015 32.75 92.5188 32.75C83.023 32.75 75.3251 40.4479 75.3251 49.9437L75.325 82.6937M109.713 49.9437L109.713 33.5687C109.713 24.0729 117.411 16.375 126.906 16.375C136.402 16.375 144.1 24.0729 144.1 33.5687L144.1 49.9437M109.713 49.9437L110.531 114.625M144.1 122.813V49.9437M144.1 49.9437C144.1 40.4479 151.798 32.75 161.294 32.75C170.79 32.75 178.488 40.4479 178.488 49.9437V163.75M75.325 82.6937C75.325 73.1979 67.6271 65.5 58.1312 65.5C48.6354 65.5 40.9375 73.1979 40.9375 82.6937V171.938C40.9375 212.634 73.9285 245.625 114.625 245.625H136.653C151.854 245.625 166.431 239.587 177.18 228.839L196.089 209.93C206.837 199.181 212.875 184.604 212.875 169.404L212.908 147.309C212.925 145.42 213.64 143.59 215.066 142.164C221.781 135.45 221.781 124.563 215.066 117.849C208.352 111.134 197.465 111.134 190.751 117.849C182.653 125.947 178.572 136.58 178.521 147.173M75.325 82.6937V131M143.773 178.138C148.029 173.882 152.871 170.57 158.041 168.203C164.515 165.237 171.501 163.753 178.488 163.75M178.509 163.75H178.488" stroke="white" stroke-width="25" stroke-linecap="round" stroke-linejoin="round"/>
</svg>
