<svg width="262" height="262" viewBox="0 0 262 262" fill="none" xmlns="http://www.w3.org/2000/svg">
<path d="M227.503 50.3257C221.928 44.7474 215.307 40.3222 208.021 37.3031C200.735 34.2839 192.925 32.73 185.038 32.73C177.15 32.73 169.34 34.2839 162.054 37.3031C154.768 40.3222 148.147 44.7474 142.572 50.3257L131 61.8974L119.428 50.3257C108.166 39.0631 92.8903 32.7358 76.9625 32.7358C61.0347 32.7358 45.7593 39.0631 34.4967 50.3257C23.234 61.5884 16.9067 76.8638 16.9067 92.7916C16.9067 108.719 23.234 123.995 34.4967 135.257L131 231.761L227.503 135.257C233.082 129.682 237.507 123.061 240.526 115.775C243.545 108.489 245.099 100.679 245.099 92.7916C245.099 84.9044 243.545 77.0945 240.526 69.8081C237.507 62.5217 233.082 55.9015 227.503 50.3257Z" stroke="white" stroke-width="25" stroke-linecap="round" stroke-linejoin="round"/>
</svg>
