<svg width="367" height="288" viewBox="0 0 367 288" fill="none" xmlns="http://www.w3.org/2000/svg">
<path d="M13.25 196.4C13.25 239.81 48.4404 275 91.85 275H288.35C324.525 275 353.85 245.675 353.85 209.5C353.85 181.517 336.302 157.632 311.609 148.25C313.514 142.82 314.55 136.981 314.55 130.9C314.55 101.96 291.09 78.5 262.15 78.5C256.504 78.5 251.066 79.3931 245.97 81.0457C235.539 41.8654 199.815 13 157.35 13C106.705 13 65.65 54.0555 65.65 104.7C65.65 110.52 66.1923 116.214 67.229 121.733C35.879 132.065 13.25 161.59 13.25 196.4Z" stroke="white" stroke-width="25" stroke-linecap="round" stroke-linejoin="round"/>
</svg>
