<svg width="262" height="257" viewBox="0 0 262 257" fill="none" xmlns="http://www.w3.org/2000/svg">
<g clip-path="url(#clip0_64_43)">
<path d="M185.583 224.875V203.458C185.583 192.098 180.983 181.203 172.794 173.171C164.605 165.138 153.498 160.625 141.917 160.625H54.5833C43.0022 160.625 31.8954 165.138 23.7063 173.171C15.5173 181.203 10.9167 192.098 10.9167 203.458V224.875M251.083 224.875V203.458C251.076 193.968 247.856 184.748 241.928 177.248C236.001 169.747 227.701 164.39 218.333 162.017M174.667 33.5171C184.06 35.8761 192.385 41.2346 198.33 48.7477C204.275 56.2607 207.502 65.5011 207.502 75.0119C207.502 84.5227 204.275 93.763 198.33 101.276C192.385 108.789 184.06 114.148 174.667 116.507M141.917 74.9583C141.917 98.6145 122.366 117.792 98.25 117.792C74.1336 117.792 54.5833 98.6145 54.5833 74.9583C54.5833 51.3021 74.1336 32.125 98.25 32.125C122.366 32.125 141.917 51.3021 141.917 74.9583Z" stroke="white" stroke-width="25" stroke-linecap="round" stroke-linejoin="round"/>
</g>
<defs>
<clipPath id="clip0_64_43">
<rect width="262" height="257" fill="white"/>
</clipPath>
</defs>
</svg>
