<svg width="288" height="288" viewBox="0 0 288 288" fill="none" xmlns="http://www.w3.org/2000/svg">
<path d="M119.844 203.444C109.817 202.562 99.6683 202.112 89.4167 202.112H78.5C42.3253 202.112 13 172.229 13 135.367C13 98.5042 42.3254 68.6213 78.5 68.6213H89.4167C99.6683 68.6213 109.817 68.1713 119.844 67.2896M119.844 203.444C123.525 217.708 128.334 231.506 134.17 244.732C137.771 252.896 135.037 262.669 127.43 267.145L117.877 272.765C109.851 277.487 99.5415 274.503 95.6524 265.931C86.5317 245.828 79.452 224.567 74.6843 202.423M119.844 203.444C114.236 181.71 111.25 158.894 111.25 135.367C111.25 111.84 114.236 89.0231 119.844 67.2896M119.844 203.444C165.833 207.487 209.274 220.611 248.432 241.046M119.844 67.2896C165.833 63.2461 209.274 50.1228 248.432 29.6877M248.432 29.6877C246.719 24.0641 244.872 18.5003 242.897 13M248.432 29.6877C256.219 55.2466 261.256 82.039 263.19 109.706M248.432 241.046C246.719 246.669 244.872 252.233 242.897 257.734M248.432 241.046C256.219 215.487 261.256 188.695 263.19 161.028M263.19 109.706C270.406 115.827 275 125.05 275 135.367C275 145.683 270.406 154.906 263.19 161.028M263.19 109.706C263.782 118.181 264.083 126.738 264.083 135.367C264.083 143.996 263.782 152.553 263.19 161.028" stroke="white" stroke-width="25" stroke-linecap="round" stroke-linejoin="round"/>
</svg>
